# This file uses centimeters as units for non-parametric coordinates.

mtllib test.mtl
g default
v 0.994523 -0.050000 -0.104529
v 0.978148 -0.050000 -0.207912
v 0.951057 -0.050000 -0.309017
v 0.913546 -0.050000 -0.406737
v 0.866026 -0.050000 -0.500000
v 0.809018 -0.050000 -0.587786
v 0.743145 -0.050000 -0.669131
v 0.669131 -0.050000 -0.743145
v 0.587786 -0.050000 -0.809018
v 0.500000 -0.050000 -0.866026
v 0.406737 -0.050000 -0.913546
v 0.309017 -0.050000 -0.951057
v 0.207912 -0.050000 -0.978148
v 0.104528 -0.050000 -0.994523
v -0.000000 -0.050000 -1.000001
v -0.104529 -0.050000 -0.994523
v -0.207912 -0.050000 -0.978148
v -0.309017 -0.050000 -0.951057
v -0.406737 -0.050000 -0.913546
v -0.500000 -0.050000 -0.866026
v -0.587786 -0.050000 -0.809017
v -0.669131 -0.050000 -0.743145
v -0.743145 -0.050000 -0.669131
v -0.809017 -0.050000 -0.587785
v -0.866026 -0.050000 -0.500000
v -0.913546 -0.050000 -0.406737
v -0.951057 -0.050000 -0.309017
v -0.978148 -0.050000 -0.207912
v -0.994522 -0.050000 -0.104528
v -1.000000 -0.050000 0.000000
v -0.994522 -0.050000 0.104529
v -0.978148 -0.050000 0.207912
v -0.951057 -0.050000 0.309017
v -0.913546 -0.050000 0.406737
v -0.866026 -0.050000 0.500000
v -0.809017 -0.050000 0.587785
v -0.743145 -0.050000 0.669131
v -0.669131 -0.050000 0.743145
v -0.587785 -0.050000 0.809017
v -0.500000 -0.050000 0.866026
v -0.406737 -0.050000 0.913546
v -0.309017 -0.050000 0.951057
v -0.207912 -0.050000 0.978148
v -0.104528 -0.050000 0.994522
v 0.000000 -0.050000 1.000000
v 0.104529 -0.050000 0.994522
v 0.207912 -0.050000 0.978148
v 0.309017 -0.050000 0.951057
v 0.406737 -0.050000 0.913545
v 0.500000 -0.050000 0.866025
v 0.587785 -0.050000 0.809017
v 0.669131 -0.050000 0.743145
v 0.743145 -0.050000 0.669131
v 0.809017 -0.050000 0.587785
v 0.866025 -0.050000 0.500000
v 0.913545 -0.050000 0.406737
v 0.951057 -0.050000 0.309017
v 0.978148 -0.050000 0.207912
v 0.994522 -0.050000 0.104528
v 1.000000 -0.050000 0.000000
v 0.994523 0.050000 -0.104529
v 0.978148 0.050000 -0.207912
v 0.951057 0.050000 -0.309017
v 0.913546 0.050000 -0.406737
v 0.866026 0.050000 -0.500000
v 0.809018 0.050000 -0.587786
v 0.743145 0.050000 -0.669131
v 0.669131 0.050000 -0.743145
v 0.587786 0.050000 -0.809018
v 0.500000 0.050000 -0.866026
v 0.406737 0.050000 -0.913546
v 0.309017 0.050000 -0.951057
v 0.207912 0.050000 -0.978148
v 0.104528 0.050000 -0.994523
v -0.000000 0.050000 -1.000001
v -0.104529 0.050000 -0.994523
v -0.207912 0.050000 -0.978148
v -0.309017 0.050000 -0.951057
v -0.406737 0.050000 -0.913546
v -0.500000 0.050000 -0.866026
v -0.587786 0.050000 -0.809017
v -0.669131 0.050000 -0.743145
v -0.743145 0.050000 -0.669131
v -0.809017 0.050000 -0.587785
v -0.866026 0.050000 -0.500000
v -0.913546 0.050000 -0.406737
v -0.951057 0.050000 -0.309017
v -0.978148 0.050000 -0.207912
v -0.994522 0.050000 -0.104528
v -1.000000 0.050000 0.000000
v -0.994522 0.050000 0.104529
v -0.978148 0.050000 0.207912
v -0.951057 0.050000 0.309017
v -0.913546 0.050000 0.406737
v -0.866026 0.050000 0.500000
v -0.809017 0.050000 0.587785
v -0.743145 0.050000 0.669131
v -0.669131 0.050000 0.743145
v -0.587785 0.050000 0.809017
v -0.500000 0.050000 0.866026
v -0.406737 0.050000 0.913546
v -0.309017 0.050000 0.951057
v -0.207912 0.050000 0.978148
v -0.104528 0.050000 0.994522
v 0.000000 0.050000 1.000000
v 0.104529 0.050000 0.994522
v 0.207912 0.050000 0.978148
v 0.309017 0.050000 0.951057
v 0.406737 0.050000 0.913545
v 0.500000 0.050000 0.866025
v 0.587785 0.050000 0.809017
v 0.669131 0.050000 0.743145
v 0.743145 0.050000 0.669131
v 0.809017 0.050000 0.587785
v 0.866025 0.050000 0.500000
v 0.913545 0.050000 0.406737
v 0.951057 0.050000 0.309017
v 0.978148 0.050000 0.207912
v 0.994522 0.050000 0.104528
v 1.000000 0.050000 0.000000
v 0.000000 -0.050000 0.000000
v 0.000000 0.050000 0.000000
vt 0.655394 0.139917
vt 0.652836 0.123764
vt 0.648603 0.107966
vt 0.642742 0.092697
vt 0.635317 0.078125
vt 0.626409 0.064408
vt 0.616116 0.051698
vt 0.604552 0.040134
vt 0.591842 0.029841
vt 0.578125 0.020933
vt 0.563553 0.013508
vt 0.548284 0.007647
vt 0.532486 0.003414
vt 0.516333 0.000856
vt 0.500000 -0.000000
vt 0.483667 0.000856
vt 0.467514 0.003414
vt 0.451716 0.007647
vt 0.436447 0.013508
vt 0.421875 0.020933
vt 0.408158 0.029841
vt 0.395448 0.040134
vt 0.383884 0.051698
vt 0.373591 0.064409
vt 0.364683 0.078125
vt 0.357258 0.092697
vt 0.351397 0.107966
vt 0.347164 0.123764
vt 0.344606 0.139917
vt 0.343750 0.156250
vt 0.344606 0.172583
vt 0.347164 0.188736
vt 0.351397 0.204534
vt 0.357258 0.219803
vt 0.364684 0.234375
vt 0.373591 0.248091
vt 0.383884 0.260802
vt 0.395448 0.272366
vt 0.408159 0.282659
vt 0.421875 0.291566
vt 0.436447 0.298992
vt 0.451716 0.304853
vt 0.467514 0.309086
vt 0.483667 0.311644
vt 0.500000 0.312500
vt 0.516333 0.311644
vt 0.532486 0.309086
vt 0.548284 0.304853
vt 0.563553 0.298992
vt 0.578125 0.291566
vt 0.591841 0.282659
vt 0.604552 0.272366
vt 0.616116 0.260802
vt 0.626409 0.248091
vt 0.635316 0.234375
vt 0.642742 0.219803
vt 0.648603 0.204534
vt 0.652836 0.188736
vt 0.655394 0.172583
vt 0.656250 0.156250
vt 0.375000 0.312500
vt 0.379167 0.312500
vt 0.383333 0.312500
vt 0.387500 0.312500
vt 0.391667 0.312500
vt 0.395833 0.312500
vt 0.400000 0.312500
vt 0.404167 0.312500
vt 0.408333 0.312500
vt 0.412500 0.312500
vt 0.416667 0.312500
vt 0.420833 0.312500
vt 0.425000 0.312500
vt 0.429167 0.312500
vt 0.433333 0.312500
vt 0.437500 0.312500
vt 0.441667 0.312500
vt 0.445833 0.312500
vt 0.450000 0.312500
vt 0.454167 0.312500
vt 0.458333 0.312500
vt 0.462500 0.312500
vt 0.466667 0.312500
vt 0.470833 0.312500
vt 0.475000 0.312500
vt 0.479167 0.312500
vt 0.483333 0.312500
vt 0.487500 0.312500
vt 0.491667 0.312500
vt 0.495833 0.312500
vt 0.500000 0.312500
vt 0.504167 0.312500
vt 0.508333 0.312500
vt 0.512500 0.312500
vt 0.516667 0.312500
vt 0.520833 0.312500
vt 0.525000 0.312500
vt 0.529167 0.312500
vt 0.533333 0.312500
vt 0.537500 0.312500
vt 0.541667 0.312500
vt 0.545833 0.312500
vt 0.550000 0.312500
vt 0.554166 0.312500
vt 0.558333 0.312500
vt 0.562500 0.312500
vt 0.566666 0.312500
vt 0.570833 0.312500
vt 0.575000 0.312500
vt 0.579166 0.312500
vt 0.583333 0.312500
vt 0.587500 0.312500
vt 0.591666 0.312500
vt 0.595833 0.312500
vt 0.600000 0.312500
vt 0.604166 0.312500
vt 0.608333 0.312500
vt 0.612500 0.312500
vt 0.616666 0.312500
vt 0.620833 0.312500
vt 0.625000 0.312500
vt 0.375000 0.688440
vt 0.379167 0.688440
vt 0.383333 0.688440
vt 0.387500 0.688440
vt 0.391667 0.688440
vt 0.395833 0.688440
vt 0.400000 0.688440
vt 0.404167 0.688440
vt 0.408333 0.688440
vt 0.412500 0.688440
vt 0.416667 0.688440
vt 0.420833 0.688440
vt 0.425000 0.688440
vt 0.429167 0.688440
vt 0.433333 0.688440
vt 0.437500 0.688440
vt 0.441667 0.688440
vt 0.445833 0.688440
vt 0.450000 0.688440
vt 0.454167 0.688440
vt 0.458333 0.688440
vt 0.462500 0.688440
vt 0.466667 0.688440
vt 0.470833 0.688440
vt 0.475000 0.688440
vt 0.479167 0.688440
vt 0.483333 0.688440
vt 0.487500 0.688440
vt 0.491667 0.688440
vt 0.495833 0.688440
vt 0.500000 0.688440
vt 0.504167 0.688440
vt 0.508333 0.688440
vt 0.512500 0.688440
vt 0.516667 0.688440
vt 0.520833 0.688440
vt 0.525000 0.688440
vt 0.529167 0.688440
vt 0.533333 0.688440
vt 0.537500 0.688440
vt 0.541667 0.688440
vt 0.545833 0.688440
vt 0.550000 0.688440
vt 0.554166 0.688440
vt 0.558333 0.688440
vt 0.562500 0.688440
vt 0.566666 0.688440
vt 0.570833 0.688440
vt 0.575000 0.688440
vt 0.579166 0.688440
vt 0.583333 0.688440
vt 0.587500 0.688440
vt 0.591666 0.688440
vt 0.595833 0.688440
vt 0.600000 0.688440
vt 0.604166 0.688440
vt 0.608333 0.688440
vt 0.612500 0.688440
vt 0.616666 0.688440
vt 0.620833 0.688440
vt 0.625000 0.688440
vt 0.655394 0.827417
vt 0.652836 0.811264
vt 0.648603 0.795466
vt 0.642742 0.780197
vt 0.635317 0.765625
vt 0.626409 0.751908
vt 0.616116 0.739198
vt 0.604552 0.727634
vt 0.591842 0.717341
vt 0.578125 0.708433
vt 0.563553 0.701008
vt 0.548284 0.695147
vt 0.532486 0.690914
vt 0.516333 0.688356
vt 0.500000 0.687500
vt 0.483667 0.688356
vt 0.467514 0.690914
vt 0.451716 0.695147
vt 0.436447 0.701008
vt 0.421875 0.708433
vt 0.408158 0.717341
vt 0.395448 0.727634
vt 0.383884 0.739198
vt 0.373591 0.751909
vt 0.364683 0.765625
vt 0.357258 0.780197
vt 0.351397 0.795466
vt 0.347164 0.811264
vt 0.344606 0.827417
vt 0.343750 0.843750
vt 0.344606 0.860083
vt 0.347164 0.876236
vt 0.351397 0.892034
vt 0.357258 0.907303
vt 0.364684 0.921875
vt 0.373591 0.935591
vt 0.383884 0.948302
vt 0.395448 0.959866
vt 0.408159 0.970159
vt 0.421875 0.979066
vt 0.436447 0.986492
vt 0.451716 0.992353
vt 0.467514 0.996586
vt 0.483667 0.999144
vt 0.500000 1.000000
vt 0.516333 0.999144
vt 0.532486 0.996586
vt 0.548284 0.992353
vt 0.563553 0.986492
vt 0.578125 0.979066
vt 0.591841 0.970159
vt 0.604552 0.959866
vt 0.616116 0.948302
vt 0.626409 0.935591
vt 0.635316 0.921875
vt 0.642742 0.907303
vt 0.648603 0.892034
vt 0.652836 0.876236
vt 0.655394 0.860083
vt 0.656250 0.843750
vt 0.500000 0.150000
vt 0.500000 0.837500
vn 0.994522 0.000000 -0.104525
vn 0.978148 0.000000 -0.207912
vn 0.978148 0.000000 -0.207912
vn 0.994522 0.000000 -0.104525
vn 0.951056 0.000000 -0.309017
vn 0.951056 0.000000 -0.309017
vn 0.913545 0.000000 -0.406737
vn 0.913545 0.000000 -0.406737
vn 0.866025 0.000000 -0.500000
vn 0.866025 0.000000 -0.500000
vn 0.809017 0.000000 -0.587786
vn 0.809017 0.000000 -0.587786
vn 0.743145 0.000000 -0.669131
vn 0.743145 0.000000 -0.669131
vn 0.669131 0.000000 -0.743145
vn 0.669131 0.000000 -0.743145
vn 0.587785 0.000000 -0.809017
vn 0.587785 0.000000 -0.809017
vn 0.500000 0.000000 -0.866026
vn 0.500000 0.000000 -0.866026
vn 0.406736 0.000000 -0.913546
vn 0.406736 0.000000 -0.913546
vn 0.309017 0.000000 -0.951057
vn 0.309017 0.000000 -0.951057
vn 0.207911 0.000000 -0.978148
vn 0.207911 0.000000 -0.978148
vn 0.104528 0.000000 -0.994522
vn 0.104528 0.000000 -0.994522
vn 0.000000 0.000000 -1.000000
vn 0.000000 0.000000 -1.000000
vn -0.104528 0.000000 -0.994522
vn -0.104528 0.000000 -0.994522
vn -0.207912 0.000000 -0.978148
vn -0.207912 0.000000 -0.978148
vn -0.309017 0.000000 -0.951056
vn -0.309017 0.000000 -0.951056
vn -0.406737 0.000000 -0.913545
vn -0.406737 0.000000 -0.913545
vn -0.500001 0.000000 -0.866025
vn -0.500001 0.000000 -0.866025
vn -0.587786 0.000000 -0.809017
vn -0.587786 0.000000 -0.809017
vn -0.669131 0.000000 -0.743145
vn -0.669131 0.000000 -0.743145
vn -0.743145 0.000000 -0.669130
vn -0.743145 0.000000 -0.669130
vn -0.809017 0.000000 -0.587785
vn -0.809017 0.000000 -0.587785
vn -0.866025 0.000000 -0.500000
vn -0.866025 0.000000 -0.500000
vn -0.913546 0.000000 -0.406736
vn -0.913546 0.000000 -0.406736
vn -0.951057 0.000000 -0.309017
vn -0.951057 0.000000 -0.309017
vn -0.978148 0.000000 -0.207912
vn -0.978148 0.000000 -0.207912
vn -0.994522 0.000000 -0.104528
vn -0.994522 0.000000 -0.104528
vn -1.000000 0.000000 0.000000
vn -1.000000 0.000000 0.000000
vn -0.994522 0.000000 0.104529
vn -0.994522 0.000000 0.104529
vn -0.978148 0.000000 0.207912
vn -0.978148 0.000000 0.207912
vn -0.951057 0.000000 0.309017
vn -0.951057 0.000000 0.309017
vn -0.913545 0.000000 0.406737
vn -0.913545 0.000000 0.406737
vn -0.866025 0.000000 0.500000
vn -0.866025 0.000000 0.500000
vn -0.809017 0.000000 0.587785
vn -0.809017 0.000000 0.587785
vn -0.743145 0.000000 0.669131
vn -0.743145 0.000000 0.669131
vn -0.669130 0.000000 0.743145
vn -0.669130 0.000000 0.743145
vn -0.587785 0.000000 0.809017
vn -0.587785 0.000000 0.809017
vn -0.500000 0.000000 0.866026
vn -0.500000 0.000000 0.866026
vn -0.406737 0.000000 0.913546
vn -0.406737 0.000000 0.913546
vn -0.309017 0.000000 0.951057
vn -0.309017 0.000000 0.951057
vn -0.207911 0.000000 0.978148
vn -0.207911 0.000000 0.978148
vn -0.104528 0.000000 0.994522
vn -0.104528 0.000000 0.994522
vn 0.000000 0.000000 1.000000
vn 0.000000 0.000000 1.000000
vn 0.104529 0.000000 0.994522
vn 0.104529 0.000000 0.994522
vn 0.207912 0.000000 0.978148
vn 0.207912 0.000000 0.978148
vn 0.309017 0.000000 0.951057
vn 0.309017 0.000000 0.951057
vn 0.406737 0.000000 0.913545
vn 0.406737 0.000000 0.913545
vn 0.500000 0.000000 0.866025
vn 0.500000 0.000000 0.866025
vn 0.587785 0.000000 0.809017
vn 0.587785 0.000000 0.809017
vn 0.669131 0.000000 0.743145
vn 0.669131 0.000000 0.743145
vn 0.743145 0.000000 0.669130
vn 0.743145 0.000000 0.669130
vn 0.809017 0.000000 0.587785
vn 0.809017 0.000000 0.587785
vn 0.866025 0.000000 0.500000
vn 0.866025 0.000000 0.500000
vn 0.913545 0.000000 0.406737
vn 0.913545 0.000000 0.406737
vn 0.951057 0.000000 0.309017
vn 0.951057 0.000000 0.309017
vn 0.978148 0.000000 0.207912
vn 0.978148 0.000000 0.207912
vn 0.994522 0.000000 0.104528
vn 0.994522 0.000000 0.104528
vn 1.000000 0.000000 0.000004
vn 1.000000 0.000000 0.000004
vn 0.000000 -1.000000 0.000000
vn 0.000000 -1.000000 0.000000
vn 0.000000 -1.000000 0.000000
vn 0.000000 -1.000000 0.000000
vn 0.000000 -1.000000 0.000000
vn 0.000000 -1.000000 0.000000
vn 0.000000 -1.000000 -0.000000
vn 0.000000 -1.000000 -0.000000
vn 0.000000 -1.000000 0.000000
vn 0.000000 -1.000000 0.000000
vn 0.000000 -1.000000 0.000000
vn 0.000000 -1.000000 0.000000
vn 0.000000 -1.000000 0.000000
vn 0.000000 -1.000000 0.000000
vn 0.000000 -1.000000 0.000000
vn 0.000000 -1.000000 -0.000000
vn 0.000000 -1.000000 0.000000
vn 0.000000 -1.000000 0.000000
vn 0.000000 -1.000000 0.000000
vn 0.000000 -1.000000 0.000000
vn 0.000000 -1.000000 0.000000
vn 0.000000 -1.000000 0.000000
vn 0.000000 -1.000000 0.000000
vn 0.000000 -1.000000 0.000000
vn 0.000000 -1.000000 0.000000
vn 0.000000 -1.000000 -0.000000
vn 0.000000 -1.000000 0.000000
vn 0.000000 -1.000000 0.000000
vn 0.000000 -1.000000 0.000000
vn 0.000000 -1.000000 0.000000
vn 0.000000 -1.000000 0.000000
vn 0.000000 -1.000000 0.000000
vn 0.000000 -1.000000 0.000000
vn 0.000000 -1.000000 0.000000
vn 0.000000 -1.000000 0.000000
vn 0.000000 -1.000000 0.000000
vn 0.000000 -1.000000 0.000000
vn 0.000000 -1.000000 0.000000
vn 0.000000 -1.000000 0.000000
vn 0.000000 -1.000000 0.000000
vn 0.000000 -1.000000 0.000000
vn 0.000000 -1.000000 0.000000
vn 0.000000 -1.000000 0.000000
vn 0.000000 -1.000000 0.000000
vn 0.000000 -1.000000 0.000000
vn 0.000000 -1.000000 0.000000
vn 0.000000 -1.000000 0.000000
vn 0.000000 -1.000000 0.000000
vn 0.000000 -1.000000 0.000000
vn 0.000000 -1.000000 0.000000
vn 0.000000 -1.000000 0.000000
vn 0.000000 -1.000000 0.000000
vn 0.000000 -1.000000 0.000000
vn 0.000000 -1.000000 -0.000000
vn 0.000000 -1.000000 -0.000000
vn 0.000000 -1.000000 0.000000
vn 0.000000 -1.000000 0.000000
vn 0.000000 -1.000000 0.000000
vn 0.000000 -1.000000 0.000000
vn 0.000000 -1.000000 0.000000
vn 0.000000 -1.000000 0.000000
vn 0.000000 1.000000 0.000000
vn 0.000000 1.000000 0.000000
vn 0.000000 1.000000 -0.000000
vn 0.000000 1.000000 0.000000
vn 0.000000 1.000000 0.000000
vn 0.000000 1.000000 0.000000
vn 0.000000 1.000000 -0.000000
vn 0.000000 1.000000 -0.000000
vn 0.000000 1.000000 0.000000
vn 0.000000 1.000000 0.000000
vn 0.000000 1.000000 0.000000
vn 0.000000 1.000000 0.000000
vn 0.000000 1.000000 0.000000
vn 0.000000 1.000000 -0.000000
vn 0.000000 1.000000 0.000000
vn 0.000000 1.000000 0.000000
vn 0.000000 1.000000 -0.000000
vn 0.000000 1.000000 -0.000000
vn 0.000000 1.000000 -0.000000
vn 0.000000 1.000000 -0.000000
vn 0.000000 1.000000 0.000000
vn 0.000000 1.000000 0.000000
vn 0.000000 1.000000 -0.000000
vn 0.000000 1.000000 0.000000
vn 0.000000 1.000000 -0.000000
vn 0.000000 1.000000 -0.000000
vn 0.000000 1.000000 0.000000
vn 0.000000 1.000000 0.000000
vn 0.000000 1.000000 0.000000
vn 0.000000 1.000000 0.000000
vn 0.000000 1.000000 0.000000
vn 0.000000 1.000000 0.000000
vn 0.000000 1.000000 0.000000
vn 0.000000 1.000000 0.000000
vn 0.000000 1.000000 0.000000
vn 0.000000 1.000000 0.000000
vn 0.000000 1.000000 0.000000
vn 0.000000 1.000000 0.000000
vn 0.000000 1.000000 0.000000
vn 0.000000 1.000000 0.000000
vn 0.000000 1.000000 0.000000
vn 0.000000 1.000000 0.000000
vn 0.000000 1.000000 -0.000000
vn 0.000000 1.000000 -0.000000
vn 0.000000 1.000000 0.000000
vn 0.000000 1.000000 0.000000
vn 0.000000 1.000000 -0.000000
vn 0.000000 1.000000 -0.000000
vn 0.000000 1.000000 -0.000000
vn 0.000000 1.000000 -0.000000
vn 0.000000 1.000000 0.000000
vn 0.000000 1.000000 0.000000
vn 0.000000 1.000000 0.000000
vn 0.000000 1.000000 -0.000000
vn 0.000000 1.000000 -0.000000
vn 0.000000 1.000000 0.000000
vn 0.000000 1.000000 0.000000
vn 0.000000 1.000000 0.000000
vn 0.000000 1.000000 0.000000
vn 0.000000 1.000000 0.000000
vn 0.000000 1.000000 0.000000
s 1
g pCylinder2
usemtl initialShadingGroup
f 1/61/1 2/62/2 62/123/3 61/122/4
f 2/62/2 3/63/5 63/124/6 62/123/3
f 3/63/5 4/64/7 64/125/8 63/124/6
f 4/64/7 5/65/9 65/126/10 64/125/8
f 5/65/9 6/66/11 66/127/12 65/126/10
f 6/66/11 7/67/13 67/128/14 66/127/12
f 7/67/13 8/68/15 68/129/16 67/128/14
f 8/68/15 9/69/17 69/130/18 68/129/16
f 9/69/17 10/70/19 70/131/20 69/130/18
f 10/70/19 11/71/21 71/132/22 70/131/20
f 11/71/21 12/72/23 72/133/24 71/132/22
f 12/72/23 13/73/25 73/134/26 72/133/24
f 13/73/25 14/74/27 74/135/28 73/134/26
f 14/74/27 15/75/29 75/136/30 74/135/28
f 15/75/29 16/76/31 76/137/32 75/136/30
f 16/76/31 17/77/33 77/138/34 76/137/32
f 17/77/33 18/78/35 78/139/36 77/138/34
f 18/78/35 19/79/37 79/140/38 78/139/36
f 19/79/37 20/80/39 80/141/40 79/140/38
f 20/80/39 21/81/41 81/142/42 80/141/40
f 21/81/41 22/82/43 82/143/44 81/142/42
f 22/82/43 23/83/45 83/144/46 82/143/44
f 23/83/45 24/84/47 84/145/48 83/144/46
f 24/84/47 25/85/49 85/146/50 84/145/48
f 25/85/49 26/86/51 86/147/52 85/146/50
f 26/86/51 27/87/53 87/148/54 86/147/52
f 27/87/53 28/88/55 88/149/56 87/148/54
f 28/88/55 29/89/57 89/150/58 88/149/56
f 29/89/57 30/90/59 90/151/60 89/150/58
f 30/90/59 31/91/61 91/152/62 90/151/60
f 31/91/61 32/92/63 92/153/64 91/152/62
f 32/92/63 33/93/65 93/154/66 92/153/64
f 33/93/65 34/94/67 94/155/68 93/154/66
f 34/94/67 35/95/69 95/156/70 94/155/68
f 35/95/69 36/96/71 96/157/72 95/156/70
f 36/96/71 37/97/73 97/158/74 96/157/72
f 37/97/73 38/98/75 98/159/76 97/158/74
f 38/98/75 39/99/77 99/160/78 98/159/76
f 39/99/77 40/100/79 100/161/80 99/160/78
f 40/100/79 41/101/81 101/162/82 100/161/80
f 41/101/81 42/102/83 102/163/84 101/162/82
f 42/102/83 43/103/85 103/164/86 102/163/84
f 43/103/85 44/104/87 104/165/88 103/164/86
f 44/104/87 45/105/89 105/166/90 104/165/88
f 45/105/89 46/106/91 106/167/92 105/166/90
f 46/106/91 47/107/93 107/168/94 106/167/92
f 47/107/93 48/108/95 108/169/96 107/168/94
f 48/108/95 49/109/97 109/170/98 108/169/96
f 49/109/97 50/110/99 110/171/100 109/170/98
f 50/110/99 51/111/101 111/172/102 110/171/100
f 51/111/101 52/112/103 112/173/104 111/172/102
f 52/112/103 53/113/105 113/174/106 112/173/104
f 53/113/105 54/114/107 114/175/108 113/174/106
f 54/114/107 55/115/109 115/176/110 114/175/108
f 55/115/109 56/116/111 116/177/112 115/176/110
f 56/116/111 57/117/113 117/178/114 116/177/112
f 57/117/113 58/118/115 118/179/116 117/178/114
f 58/118/115 59/119/117 119/180/118 118/179/116
f 59/119/117 60/120/119 120/181/120 119/180/118
f 60/120/119 1/121/1 61/182/4 120/181/120
s 2
f 2/2/121 1/1/122 121/243/123
f 3/3/124 2/2/121 121/243/123
f 4/4/125 3/3/124 121/243/123
f 5/5/126 4/4/125 121/243/123
f 6/6/127 5/5/126 121/243/123
f 7/7/128 6/6/127 121/243/123
f 8/8/129 7/7/128 121/243/123
f 9/9/130 8/8/129 121/243/123
f 10/10/131 9/9/130 121/243/123
f 11/11/132 10/10/131 121/243/123
f 12/12/133 11/11/132 121/243/123
f 13/13/134 12/12/133 121/243/123
f 14/14/135 13/13/134 121/243/123
f 15/15/136 14/14/135 121/243/123
f 16/16/137 15/15/136 121/243/123
f 17/17/138 16/16/137 121/243/123
f 18/18/139 17/17/138 121/243/123
f 19/19/140 18/18/139 121/243/123
f 20/20/141 19/19/140 121/243/123
f 21/21/142 20/20/141 121/243/123
f 22/22/143 21/21/142 121/243/123
f 23/23/144 22/22/143 121/243/123
f 24/24/145 23/23/144 121/243/123
f 25/25/146 24/24/145 121/243/123
f 26/26/147 25/25/146 121/243/123
f 27/27/148 26/26/147 121/243/123
f 28/28/149 27/27/148 121/243/123
f 29/29/150 28/28/149 121/243/123
f 30/30/151 29/29/150 121/243/123
f 31/31/152 30/30/151 121/243/123
f 32/32/153 31/31/152 121/243/123
f 33/33/154 32/32/153 121/243/123
f 34/34/155 33/33/154 121/243/123
f 35/35/156 34/34/155 121/243/123
f 36/36/157 35/35/156 121/243/123
f 37/37/158 36/36/157 121/243/123
f 38/38/159 37/37/158 121/243/123
f 39/39/160 38/38/159 121/243/123
f 40/40/161 39/39/160 121/243/123
f 41/41/162 40/40/161 121/243/123
f 42/42/163 41/41/162 121/243/123
f 43/43/164 42/42/163 121/243/123
f 44/44/165 43/43/164 121/243/123
f 45/45/166 44/44/165 121/243/123
f 46/46/167 45/45/166 121/243/123
f 47/47/168 46/46/167 121/243/123
f 48/48/169 47/47/168 121/243/123
f 49/49/170 48/48/169 121/243/123
f 50/50/171 49/49/170 121/243/123
f 51/51/172 50/50/171 121/243/123
f 52/52/173 51/51/172 121/243/123
f 53/53/174 52/52/173 121/243/123
f 54/54/175 53/53/174 121/243/123
f 55/55/176 54/54/175 121/243/123
f 56/56/177 55/55/176 121/243/123
f 57/57/178 56/56/177 121/243/123
f 58/58/179 57/57/178 121/243/123
f 59/59/180 58/58/179 121/243/123
f 60/60/181 59/59/180 121/243/123
f 1/1/122 60/60/181 121/243/123
s 3
f 61/241/182 62/240/183 122/244/184
f 62/240/183 63/239/185 122/244/184
f 63/239/185 64/238/186 122/244/184
f 64/238/186 65/237/187 122/244/184
f 65/237/187 66/236/188 122/244/184
f 66/236/188 67/235/189 122/244/184
f 67/235/189 68/234/190 122/244/184
f 68/234/190 69/233/191 122/244/184
f 69/233/191 70/232/192 122/244/184
f 70/232/192 71/231/193 122/244/184
f 71/231/193 72/230/194 122/244/184
f 72/230/194 73/229/195 122/244/184
f 73/229/195 74/228/196 122/244/184
f 74/228/196 75/227/197 122/244/184
f 75/227/197 76/226/198 122/244/184
f 76/226/198 77/225/199 122/244/184
f 77/225/199 78/224/200 122/244/184
f 78/224/200 79/223/201 122/244/184
f 79/223/201 80/222/202 122/244/184
f 80/222/202 81/221/203 122/244/184
f 81/221/203 82/220/204 122/244/184
f 82/220/204 83/219/205 122/244/184
f 83/219/205 84/218/206 122/244/184
f 84/218/206 85/217/207 122/244/184
f 85/217/207 86/216/208 122/244/184
f 86/216/208 87/215/209 122/244/184
f 87/215/209 88/214/210 122/244/184
f 88/214/210 89/213/211 122/244/184
f 89/213/211 90/212/212 122/244/184
f 90/212/212 91/211/213 122/244/184
f 91/211/213 92/210/214 122/244/184
f 92/210/214 93/209/215 122/244/184
f 93/209/215 94/208/216 122/244/184
f 94/208/216 95/207/217 122/244/184
f 95/207/217 96/206/218 122/244/184
f 96/206/218 97/205/219 122/244/184
f 97/205/219 98/204/220 122/244/184
f 98/204/220 99/203/221 122/244/184
f 99/203/221 100/202/222 122/244/184
f 100/202/222 101/201/223 122/244/184
f 101/201/223 102/200/224 122/244/184
f 102/200/224 103/199/225 122/244/184
f 103/199/225 104/198/226 122/244/184
f 104/198/226 105/197/227 122/244/184
f 105/197/227 106/196/228 122/244/184
f 106/196/228 107/195/229 122/244/184
f 107/195/229 108/194/230 122/244/184
f 108/194/230 109/193/231 122/244/184
f 109/193/231 110/192/232 122/244/184
f 110/192/232 111/191/233 122/244/184
f 111/191/233 112/190/234 122/244/184
f 112/190/234 113/189/235 122/244/184
f 113/189/235 114/188/236 122/244/184
f 114/188/236 115/187/237 122/244/184
f 115/187/237 116/186/238 122/244/184
f 116/186/238 117/185/239 122/244/184
f 117/185/239 118/184/240 122/244/184
f 118/184/240 119/183/241 122/244/184
f 119/183/241 120/242/242 122/244/184
f 120/242/242 61/241/182 122/244/184
